<mxfile host="app.diagrams.net" modified="2023-03-24T01:59:51.816Z" agent="Mozilla/5.0 (Windows NT 10.0; Win64; x64) AppleWebKit/537.36 (KHTML, like Gecko) Chrome/111.0.0.0 Safari/537.36 Edg/111.0.1661.51" etag="cwtuU9sIH-AF8VNFioHZ" version="21.1.0" type="github">
  <diagram name="第 1 页" id="2Nr9ir0aSReX12-a5GKl">
    <mxGraphModel dx="1006" dy="565" grid="1" gridSize="10" guides="1" tooltips="1" connect="1" arrows="1" fold="1" page="1" pageScale="1" pageWidth="827" pageHeight="1169" math="0" shadow="0">
      <root>
        <mxCell id="0" />
        <mxCell id="1" parent="0" />
        <mxCell id="X5cmhdIaco8hPvHHstwS-2" value="" style="points=[[0.02,0.015,0],[0.5,0,0],[0.98,0.015,0],[1,0.38,0],[0.895,0.98,0],[0.5,1,0],[0.105,0.98,0],[0,0.38,0]];verticalLabelPosition=bottom;sketch=0;html=1;verticalAlign=top;aspect=fixed;align=center;pointerEvents=1;shape=mxgraph.cisco19.secure_endpoint_pc;fillColor=#005073;strokeColor=none;hachureGap=4;jiggle=2;curveFitting=1;fontFamily=Architects Daughter;fontSource=https%3A%2F%2Ffonts.googleapis.com%2Fcss%3Ffamily%3DArchitects%2BDaughter;fontSize=20;" parent="1" vertex="1">
          <mxGeometry x="180" y="150" width="50" height="40" as="geometry" />
        </mxCell>
        <mxCell id="X5cmhdIaco8hPvHHstwS-4" value="" style="image;aspect=fixed;perimeter=ellipsePerimeter;html=1;align=center;shadow=0;dashed=0;spacingTop=3;image=img/lib/active_directory/web_server.svg;sketch=1;hachureGap=4;jiggle=2;curveFitting=1;fontFamily=Architects Daughter;fontSource=https%3A%2F%2Ffonts.googleapis.com%2Fcss%3Ffamily%3DArchitects%2BDaughter;fontSize=20;" parent="1" vertex="1">
          <mxGeometry x="414" y="70" width="40" height="50" as="geometry" />
        </mxCell>
        <mxCell id="X5cmhdIaco8hPvHHstwS-5" value="" style="image;aspect=fixed;perimeter=ellipsePerimeter;html=1;align=center;shadow=0;dashed=0;spacingTop=3;image=img/lib/active_directory/web_server.svg;sketch=1;hachureGap=4;jiggle=2;curveFitting=1;fontFamily=Architects Daughter;fontSource=https%3A%2F%2Ffonts.googleapis.com%2Fcss%3Ffamily%3DArchitects%2BDaughter;fontSize=20;" parent="1" vertex="1">
          <mxGeometry x="414" y="180" width="40" height="50" as="geometry" />
        </mxCell>
        <mxCell id="X5cmhdIaco8hPvHHstwS-6" value="" style="image;aspect=fixed;perimeter=ellipsePerimeter;html=1;align=center;shadow=0;dashed=0;spacingTop=3;image=img/lib/active_directory/web_server.svg;sketch=1;hachureGap=4;jiggle=2;curveFitting=1;fontFamily=Architects Daughter;fontSource=https%3A%2F%2Ffonts.googleapis.com%2Fcss%3Ffamily%3DArchitects%2BDaughter;fontSize=20;" parent="1" vertex="1">
          <mxGeometry x="414" y="300" width="40" height="50" as="geometry" />
        </mxCell>
        <mxCell id="X5cmhdIaco8hPvHHstwS-11" value="" style="endArrow=classic;html=1;rounded=0;sketch=1;hachureGap=4;jiggle=2;curveFitting=1;fontFamily=Architects Daughter;fontSource=https%3A%2F%2Ffonts.googleapis.com%2Fcss%3Ffamily%3DArchitects%2BDaughter;fontSize=16;entryX=-0.1;entryY=0.652;entryDx=0;entryDy=0;entryPerimeter=0;exitX=1;exitY=0.38;exitDx=0;exitDy=0;exitPerimeter=0;" parent="1" source="X5cmhdIaco8hPvHHstwS-2" target="X5cmhdIaco8hPvHHstwS-4" edge="1">
          <mxGeometry width="50" height="50" relative="1" as="geometry">
            <mxPoint x="230" y="160" as="sourcePoint" />
            <mxPoint x="440" y="280" as="targetPoint" />
          </mxGeometry>
        </mxCell>
        <mxCell id="X5cmhdIaco8hPvHHstwS-12" value="" style="endArrow=classic;html=1;rounded=0;sketch=1;hachureGap=4;jiggle=2;curveFitting=1;fontFamily=Architects Daughter;fontSource=https%3A%2F%2Ffonts.googleapis.com%2Fcss%3Ffamily%3DArchitects%2BDaughter;fontSize=16;entryX=0;entryY=0.5;entryDx=0;entryDy=0;exitX=1;exitY=0.38;exitDx=0;exitDy=0;exitPerimeter=0;" parent="1" source="X5cmhdIaco8hPvHHstwS-2" target="X5cmhdIaco8hPvHHstwS-5" edge="1">
          <mxGeometry width="50" height="50" relative="1" as="geometry">
            <mxPoint x="240" y="175" as="sourcePoint" />
            <mxPoint x="420" y="113" as="targetPoint" />
          </mxGeometry>
        </mxCell>
        <mxCell id="X5cmhdIaco8hPvHHstwS-13" value="" style="endArrow=classic;html=1;rounded=0;sketch=1;hachureGap=4;jiggle=2;curveFitting=1;fontFamily=Architects Daughter;fontSource=https%3A%2F%2Ffonts.googleapis.com%2Fcss%3Ffamily%3DArchitects%2BDaughter;fontSize=16;entryX=0;entryY=0.5;entryDx=0;entryDy=0;exitX=1;exitY=0.38;exitDx=0;exitDy=0;exitPerimeter=0;" parent="1" source="X5cmhdIaco8hPvHHstwS-2" target="X5cmhdIaco8hPvHHstwS-6" edge="1">
          <mxGeometry width="50" height="50" relative="1" as="geometry">
            <mxPoint x="250" y="185" as="sourcePoint" />
            <mxPoint x="430" y="123" as="targetPoint" />
          </mxGeometry>
        </mxCell>
        <mxCell id="X5cmhdIaco8hPvHHstwS-14" value="" style="endArrow=classic;html=1;rounded=0;sketch=1;hachureGap=4;jiggle=2;curveFitting=1;fontFamily=Architects Daughter;fontSource=https%3A%2F%2Ffonts.googleapis.com%2Fcss%3Ffamily%3DArchitects%2BDaughter;fontSize=16;entryX=-0.16;entryY=0.78;entryDx=0;entryDy=0;entryPerimeter=0;exitX=1;exitY=0.5;exitDx=0;exitDy=0;exitPerimeter=0;" parent="1" source="X5cmhdIaco8hPvHHstwS-3" target="X5cmhdIaco8hPvHHstwS-4" edge="1">
          <mxGeometry width="50" height="50" relative="1" as="geometry">
            <mxPoint x="260" y="195" as="sourcePoint" />
            <mxPoint x="440" y="133" as="targetPoint" />
          </mxGeometry>
        </mxCell>
        <mxCell id="X5cmhdIaco8hPvHHstwS-15" value="" style="endArrow=classic;html=1;rounded=0;sketch=1;hachureGap=4;jiggle=2;curveFitting=1;fontFamily=Architects Daughter;fontSource=https%3A%2F%2Ffonts.googleapis.com%2Fcss%3Ffamily%3DArchitects%2BDaughter;fontSize=16;entryX=0;entryY=0.5;entryDx=0;entryDy=0;" parent="1" source="X5cmhdIaco8hPvHHstwS-3" target="X5cmhdIaco8hPvHHstwS-5" edge="1">
          <mxGeometry width="50" height="50" relative="1" as="geometry">
            <mxPoint x="200" y="290" as="sourcePoint" />
            <mxPoint x="450" y="143" as="targetPoint" />
          </mxGeometry>
        </mxCell>
        <mxCell id="X5cmhdIaco8hPvHHstwS-16" value="" style="endArrow=classic;html=1;rounded=0;sketch=1;hachureGap=4;jiggle=2;curveFitting=1;fontFamily=Architects Daughter;fontSource=https%3A%2F%2Ffonts.googleapis.com%2Fcss%3Ffamily%3DArchitects%2BDaughter;fontSize=16;entryX=0;entryY=0.5;entryDx=0;entryDy=0;exitX=1;exitY=0.5;exitDx=0;exitDy=0;exitPerimeter=0;" parent="1" source="X5cmhdIaco8hPvHHstwS-3" target="X5cmhdIaco8hPvHHstwS-6" edge="1">
          <mxGeometry width="50" height="50" relative="1" as="geometry">
            <mxPoint x="280" y="215" as="sourcePoint" />
            <mxPoint x="460" y="153" as="targetPoint" />
          </mxGeometry>
        </mxCell>
        <mxCell id="X5cmhdIaco8hPvHHstwS-17" value="订单服务" style="text;strokeColor=none;fillColor=none;html=1;fontSize=12;fontStyle=1;verticalAlign=middle;align=center;fontFamily=Architects Daughter;" parent="1" vertex="1">
          <mxGeometry x="454" y="75" width="100" height="40" as="geometry" />
        </mxCell>
        <mxCell id="X5cmhdIaco8hPvHHstwS-18" value="库存服务" style="text;strokeColor=none;fillColor=none;html=1;fontSize=12;fontStyle=1;verticalAlign=middle;align=center;fontFamily=Architects Daughter;" parent="1" vertex="1">
          <mxGeometry x="454" y="180" width="100" height="40" as="geometry" />
        </mxCell>
        <mxCell id="X5cmhdIaco8hPvHHstwS-19" value="商品服务" style="text;strokeColor=none;fillColor=none;html=1;fontSize=12;fontStyle=1;verticalAlign=middle;align=center;fontFamily=Architects Daughter;" parent="1" vertex="1">
          <mxGeometry x="454" y="300" width="100" height="40" as="geometry" />
        </mxCell>
        <mxCell id="X5cmhdIaco8hPvHHstwS-20" value="" style="endArrow=classic;html=1;rounded=0;sketch=1;hachureGap=4;jiggle=2;curveFitting=1;fontFamily=Architects Daughter;fontSource=https%3A%2F%2Ffonts.googleapis.com%2Fcss%3Ffamily%3DArchitects%2BDaughter;fontSize=16;entryX=0;entryY=0.5;entryDx=0;entryDy=0;" parent="1" target="X5cmhdIaco8hPvHHstwS-3" edge="1">
          <mxGeometry width="50" height="50" relative="1" as="geometry">
            <mxPoint x="200" y="290" as="sourcePoint" />
            <mxPoint x="414" y="205" as="targetPoint" />
          </mxGeometry>
        </mxCell>
        <mxCell id="X5cmhdIaco8hPvHHstwS-3" value="" style="sketch=0;aspect=fixed;pointerEvents=1;shadow=0;dashed=0;html=1;strokeColor=none;labelPosition=center;verticalLabelPosition=bottom;verticalAlign=top;align=center;fillColor=#00188D;shape=mxgraph.mscae.enterprise.android_phone;hachureGap=4;jiggle=2;curveFitting=1;fontFamily=Architects Daughter;fontSource=https%3A%2F%2Ffonts.googleapis.com%2Fcss%3Ffamily%3DArchitects%2BDaughter;fontSize=20;" parent="1" vertex="1">
          <mxGeometry x="190" y="270" width="30" height="50" as="geometry" />
        </mxCell>
      </root>
    </mxGraphModel>
  </diagram>
</mxfile>
